<?xml version="1.0" encoding="UTF-8" standalone="no"?><svg xmlns="http://www.w3.org/2000/svg" xmlns:xlink="http://www.w3.org/1999/xlink" contentScriptType="application/ecmascript" contentStyleType="text/css" height="955px" preserveAspectRatio="none" style="width:991px;height:955px;" version="1.1" viewBox="0 0 991 955" width="991px" zoomAndPan="magnify"><defs><filter height="300%" id="ff0t8m2jc4x2q" width="300%" x="-1" y="-1"><feGaussianBlur result="blurOut" stdDeviation="2.0"/><feColorMatrix in="blurOut" result="blurOut2" type="matrix" values="0 0 0 0 0 0 0 0 0 0 0 0 0 0 0 0 0 0 .4 0"/><feOffset dx="4.0" dy="4.0" in="blurOut2" result="blurOut3"/><feBlend in="SourceGraphic" in2="blurOut3" mode="normal"/></filter></defs><g><rect fill="#FFFFFF" height="943.9141" style="stroke:#A80036;stroke-width:1.0;" width="184" x="11" y="6"/><text fill="#000000" font-family="sans-serif" font-size="13" font-weight="bold" lengthAdjust="spacing" textLength="163" x="21.5" y="18.5684">FrameGenerator Thread</text><rect fill="#FFFFFF" height="943.9141" style="stroke:#A80036;stroke-width:1.0;" width="306" x="217" y="6"/><text fill="#000000" font-family="sans-serif" font-size="13" font-weight="bold" lengthAdjust="spacing" textLength="84" x="328" y="18.5684">Core Thread</text><rect fill="#FFFFFF" height="943.9141" style="stroke:#A80036;stroke-width:1.0;" width="398" x="545" y="6"/><text fill="#000000" font-family="sans-serif" font-size="13" font-weight="bold" lengthAdjust="spacing" textLength="158" x="665" y="18.5684">Post Processing Thread</text><rect fill="#FFFFFF" filter="url(#ff0t8m2jc4x2q)" height="632.6953" style="stroke:#A80036;stroke-width:1.0;" width="10" x="269.5" y="212.7305"/><rect fill="#FFFFFF" filter="url(#ff0t8m2jc4x2q)" height="502.832" style="stroke:#A80036;stroke-width:1.0;" width="10" x="456.5" y="342.5938"/><rect fill="#FFFFFF" filter="url(#ff0t8m2jc4x2q)" height="418.9004" style="stroke:#A80036;stroke-width:1.0;" width="10" x="601" y="426.5254"/><rect fill="#FFFFFF" filter="url(#ff0t8m2jc4x2q)" height="304.3477" style="stroke:#A80036;stroke-width:1.0;" width="10" x="764" y="541.0781"/><rect fill="#FFFFFF" filter="url(#ff0t8m2jc4x2q)" height="113.2422" style="stroke:#A80036;stroke-width:1.0;" width="10" x="913" y="732.1836"/><line style="stroke:#A80036;stroke-width:1.0;stroke-dasharray:5.0,5.0;" x1="33" x2="33" y1="108.7988" y2="863.4258"/><line style="stroke:#A80036;stroke-width:1.0;stroke-dasharray:5.0,5.0;" x1="126" x2="126" y1="108.7988" y2="863.4258"/><line style="stroke:#A80036;stroke-width:1.0;stroke-dasharray:5.0,5.0;" x1="274" x2="274" y1="108.7988" y2="863.4258"/><line style="stroke:#A80036;stroke-width:1.0;stroke-dasharray:5.0,5.0;" x1="461" x2="461" y1="108.7988" y2="863.4258"/><line style="stroke:#A80036;stroke-width:1.0;stroke-dasharray:5.0,5.0;" x1="606" x2="606" y1="108.7988" y2="863.4258"/><line style="stroke:#A80036;stroke-width:1.0;stroke-dasharray:5.0,5.0;" x1="768.5" x2="768.5" y1="108.7988" y2="863.4258"/><line style="stroke:#A80036;stroke-width:1.0;stroke-dasharray:5.0,5.0;" x1="918" x2="918" y1="108.7988" y2="863.4258"/><text fill="#000000" font-family="sans-serif" font-size="14" lengthAdjust="spacing" textLength="30" x="15" y="105.8457">user</text><ellipse cx="33" cy="35.3105" fill="#FEFECE" filter="url(#ff0t8m2jc4x2q)" rx="8" ry="8" style="stroke:#A80036;stroke-width:2.0;"/><path d="M33,43.3105 L33,70.3105 M20,51.3105 L46,51.3105 M33,70.3105 L20,85.3105 M33,70.3105 L46,85.3105 " fill="none" filter="url(#ff0t8m2jc4x2q)" style="stroke:#A80036;stroke-width:2.0;"/><text fill="#000000" font-family="sans-serif" font-size="14" lengthAdjust="spacing" textLength="30" x="15" y="875.9609">user</text><ellipse cx="33" cy="888.9141" fill="#FEFECE" filter="url(#ff0t8m2jc4x2q)" rx="8" ry="8" style="stroke:#A80036;stroke-width:2.0;"/><path d="M33,896.9141 L33,923.9141 M20,904.9141 L46,904.9141 M33,923.9141 L20,938.9141 M33,923.9141 L46,938.9141 " fill="none" filter="url(#ff0t8m2jc4x2q)" style="stroke:#A80036;stroke-width:2.0;"/><rect fill="#FEFECE" filter="url(#ff0t8m2jc4x2q)" height="30.4883" style="stroke:#A80036;stroke-width:1.5;" width="126" x="61" y="73.3105"/><text fill="#000000" font-family="sans-serif" font-size="14" lengthAdjust="spacing" textLength="112" x="68" y="93.8457">FrameGenerator</text><rect fill="#FEFECE" filter="url(#ff0t8m2jc4x2q)" height="30.4883" style="stroke:#A80036;stroke-width:1.5;" width="126" x="61" y="862.4258"/><text fill="#000000" font-family="sans-serif" font-size="14" lengthAdjust="spacing" textLength="112" x="68" y="882.9609">FrameGenerator</text><rect fill="#FEFECE" filter="url(#ff0t8m2jc4x2q)" height="30.4883" style="stroke:#A80036;stroke-width:1.5;" width="103" x="221" y="73.3105"/><text fill="#000000" font-family="sans-serif" font-size="14" lengthAdjust="spacing" textLength="89" x="228" y="93.8457">PreProcessor</text><rect fill="#FEFECE" filter="url(#ff0t8m2jc4x2q)" height="30.4883" style="stroke:#A80036;stroke-width:1.5;" width="103" x="221" y="862.4258"/><text fill="#000000" font-family="sans-serif" font-size="14" lengthAdjust="spacing" textLength="89" x="228" y="882.9609">PreProcessor</text><rect fill="#FEFECE" filter="url(#ff0t8m2jc4x2q)" height="30.4883" style="stroke:#A80036;stroke-width:1.5;" width="111" x="404" y="73.3105"/><text fill="#000000" font-family="sans-serif" font-size="14" lengthAdjust="spacing" textLength="97" x="411" y="93.8457">InferenceCore</text><rect fill="#FEFECE" filter="url(#ff0t8m2jc4x2q)" height="30.4883" style="stroke:#A80036;stroke-width:1.5;" width="111" x="404" y="862.4258"/><text fill="#000000" font-family="sans-serif" font-size="14" lengthAdjust="spacing" textLength="97" x="411" y="882.9609">InferenceCore</text><rect fill="#FEFECE" filter="url(#ff0t8m2jc4x2q)" height="30.4883" style="stroke:#A80036;stroke-width:1.5;" width="110" x="549" y="73.3105"/><text fill="#000000" font-family="sans-serif" font-size="14" lengthAdjust="spacing" textLength="96" x="556" y="93.8457">PostProcessor</text><rect fill="#FEFECE" filter="url(#ff0t8m2jc4x2q)" height="30.4883" style="stroke:#A80036;stroke-width:1.5;" width="110" x="549" y="862.4258"/><text fill="#000000" font-family="sans-serif" font-size="14" lengthAdjust="spacing" textLength="96" x="556" y="882.9609">PostProcessor</text><rect fill="#FEFECE" filter="url(#ff0t8m2jc4x2q)" height="30.4883" style="stroke:#A80036;stroke-width:1.5;" width="131" x="701.5" y="73.3105"/><text fill="#000000" font-family="sans-serif" font-size="14" lengthAdjust="spacing" textLength="117" x="708.5" y="93.8457">PostureEstimator</text><rect fill="#FEFECE" filter="url(#ff0t8m2jc4x2q)" height="30.4883" style="stroke:#A80036;stroke-width:1.5;" width="131" x="701.5" y="862.4258"/><text fill="#000000" font-family="sans-serif" font-size="14" lengthAdjust="spacing" textLength="117" x="708.5" y="882.9609">PostureEstimator</text><rect fill="#FEFECE" filter="url(#ff0t8m2jc4x2q)" height="30.4883" style="stroke:#A80036;stroke-width:1.5;" width="38" x="897" y="73.3105"/><text fill="#000000" font-family="sans-serif" font-size="14" lengthAdjust="spacing" textLength="24" x="904" y="93.8457">GUI</text><rect fill="#FEFECE" filter="url(#ff0t8m2jc4x2q)" height="30.4883" style="stroke:#A80036;stroke-width:1.5;" width="38" x="897" y="862.4258"/><text fill="#000000" font-family="sans-serif" font-size="14" lengthAdjust="spacing" textLength="24" x="904" y="882.9609">GUI</text><rect fill="#FFFFFF" filter="url(#ff0t8m2jc4x2q)" height="632.6953" style="stroke:#A80036;stroke-width:1.0;" width="10" x="269.5" y="212.7305"/><rect fill="#FFFFFF" filter="url(#ff0t8m2jc4x2q)" height="502.832" style="stroke:#A80036;stroke-width:1.0;" width="10" x="456.5" y="342.5938"/><rect fill="#FFFFFF" filter="url(#ff0t8m2jc4x2q)" height="418.9004" style="stroke:#A80036;stroke-width:1.0;" width="10" x="601" y="426.5254"/><rect fill="#FFFFFF" filter="url(#ff0t8m2jc4x2q)" height="304.3477" style="stroke:#A80036;stroke-width:1.0;" width="10" x="764" y="541.0781"/><rect fill="#FFFFFF" filter="url(#ff0t8m2jc4x2q)" height="113.2422" style="stroke:#A80036;stroke-width:1.0;" width="10" x="913" y="732.1836"/><polygon fill="#A80036" points="114,136.1094,124,140.1094,114,144.1094,118,140.1094" style="stroke:#A80036;stroke-width:1.0;"/><line style="stroke:#A80036;stroke-width:1.0;" x1="33" x2="120" y1="140.1094" y2="140.1094"/><text fill="#000000" font-family="sans-serif" font-size="13" lengthAdjust="spacing" textLength="66" x="40" y="135.3672">Video feed</text><polygon fill="#A80036" points="114,150.1094,124,154.1094,114,158.1094,118,154.1094" style="stroke:#A80036;stroke-width:1.0;"/><line style="stroke:#A80036;stroke-width:1.0;" x1="33" x2="120" y1="154.1094" y2="154.1094"/><polygon fill="#A80036" points="114,164.1094,124,168.1094,114,172.1094,118,168.1094" style="stroke:#A80036;stroke-width:1.0;"/><line style="stroke:#A80036;stroke-width:1.0;" x1="33" x2="120" y1="168.1094" y2="168.1094"/><polygon fill="#A80036" points="257.5,208.7305,267.5,212.7305,257.5,216.7305,261.5,212.7305" style="stroke:#A80036;stroke-width:1.0;"/><line style="stroke:#A80036;stroke-width:1.0;" x1="126" x2="263.5" y1="212.7305" y2="212.7305"/><text fill="#000000" font-family="sans-serif" font-size="13" lengthAdjust="spacing" textLength="87" x="133" y="192.6777">Analyse video</text><text fill="#000000" font-family="sans-serif" font-size="13" lengthAdjust="spacing" textLength="95" x="133" y="207.9883">frame by frame</text><path d="M197,225.7305 L197,296.7305 L347,296.7305 L347,235.7305 L337,225.7305 L197,225.7305 " fill="#FBFB77" filter="url(#ff0t8m2jc4x2q)" style="stroke:#A80036;stroke-width:1.0;"/><path d="M337,225.7305 L337,235.7305 L347,235.7305 L337,225.7305 " fill="#FBFB77" style="stroke:#A80036;stroke-width:1.0;"/><text fill="#000000" font-family="sans-serif" font-size="13" lengthAdjust="spacing" textLength="98" x="203" y="243.2988">1. Resize image</text><text fill="#000000" font-family="sans-serif" font-size="13" lengthAdjust="spacing" textLength="84" x="219" y="258.6094">to suit model</text><text fill="#000000" font-family="sans-serif" font-size="13" lengthAdjust="spacing" textLength="125" x="203" y="273.9199">2. Fore/background</text><text fill="#000000" font-family="sans-serif" font-size="13" lengthAdjust="spacing" textLength="50" x="219" y="289.2305">filtering</text><polygon fill="#A80036" points="444.5,338.5938,454.5,342.5938,444.5,346.5938,448.5,342.5938" style="stroke:#A80036;stroke-width:1.0;"/><line style="stroke:#A80036;stroke-width:1.0;" x1="279.5" x2="450.5" y1="342.5938" y2="342.5938"/><text fill="#000000" font-family="sans-serif" font-size="13" lengthAdjust="spacing" textLength="154" x="286.5" y="322.541">Perform pose estimation</text><text fill="#000000" font-family="sans-serif" font-size="13" lengthAdjust="spacing" textLength="58" x="286.5" y="337.8516">on image</text><path d="M378,355.5938 L378,380.5938 L540,380.5938 L540,365.5938 L530,355.5938 L378,355.5938 " fill="#FBFB77" filter="url(#ff0t8m2jc4x2q)" style="stroke:#A80036;stroke-width:1.0;"/><path d="M530,355.5938 L530,365.5938 L540,365.5938 L530,355.5938 " fill="#FBFB77" style="stroke:#A80036;stroke-width:1.0;"/><text fill="#000000" font-family="sans-serif" font-size="13" lengthAdjust="spacing" textLength="125" x="384" y="373.1621">Pass through model</text><polygon fill="#A80036" points="589,422.5254,599,426.5254,589,430.5254,593,426.5254" style="stroke:#A80036;stroke-width:1.0;"/><line style="stroke:#A80036;stroke-width:1.0;" x1="466.5" x2="595" y1="426.5254" y2="426.5254"/><text fill="#000000" font-family="sans-serif" font-size="13" lengthAdjust="spacing" textLength="91" x="473.5" y="406.4727">Output results</text><text fill="#000000" font-family="sans-serif" font-size="13" lengthAdjust="spacing" textLength="75" x="473.5" y="421.7832">of inference</text><path d="M492,439.5254 L492,494.5254 L716,494.5254 L716,449.5254 L706,439.5254 L492,439.5254 " fill="#FBFB77" filter="url(#ff0t8m2jc4x2q)" style="stroke:#A80036;stroke-width:1.0;"/><path d="M706,439.5254 L706,449.5254 L716,449.5254 L706,439.5254 " fill="#FBFB77" style="stroke:#A80036;stroke-width:1.0;"/><text fill="#000000" font-family="sans-serif" font-size="13" lengthAdjust="spacing" textLength="203" x="498" y="457.0938">1. Apply thresholding to discard</text><text fill="#000000" font-family="sans-serif" font-size="13" lengthAdjust="spacing" textLength="101" x="514" y="472.4043">unusable values</text><text fill="#000000" font-family="sans-serif" font-size="13" lengthAdjust="spacing" textLength="141" x="498" y="487.7148">2. Filter output results</text><polygon fill="#A80036" points="752,537.0781,762,541.0781,752,545.0781,756,541.0781" style="stroke:#A80036;stroke-width:1.0;"/><line style="stroke:#A80036;stroke-width:1.0;" x1="611" x2="758" y1="541.0781" y2="541.0781"/><text fill="#000000" font-family="sans-serif" font-size="13" lengthAdjust="spacing" textLength="130" x="618" y="521.0254">Output co-ordinates</text><text fill="#000000" font-family="sans-serif" font-size="13" lengthAdjust="spacing" textLength="65" x="618" y="536.3359">of interest</text><path d="M667,554.0781 L667,655.0781 L866,655.0781 L866,564.0781 L856,554.0781 L667,554.0781 " fill="#FBFB77" filter="url(#ff0t8m2jc4x2q)" style="stroke:#A80036;stroke-width:1.0;"/><path d="M856,554.0781 L856,564.0781 L866,564.0781 L856,554.0781 " fill="#FBFB77" style="stroke:#A80036;stroke-width:1.0;"/><text fill="#000000" font-family="sans-serif" font-size="13" lengthAdjust="spacing" textLength="142" x="673" y="571.6465">1. Use co-ordinates to</text><text fill="#000000" font-family="sans-serif" font-size="13" lengthAdjust="spacing" textLength="128" x="689" y="586.957">determine if posture</text><text fill="#000000" font-family="sans-serif" font-size="13" lengthAdjust="spacing" textLength="81" x="689" y="602.2676">is good/bad.</text><text fill="#000000" font-family="sans-serif" font-size="13" lengthAdjust="spacing" textLength="178" x="673" y="617.5781">2. Determine which changes</text><text fill="#000000" font-family="sans-serif" font-size="13" lengthAdjust="spacing" textLength="121" x="689" y="632.8887">need to be made to</text><text fill="#000000" font-family="sans-serif" font-size="13" lengthAdjust="spacing" textLength="96" x="689" y="648.1992">correct posture</text><polygon fill="#A80036" points="901,728.1836,911,732.1836,901,736.1836,905,732.1836" style="stroke:#A80036;stroke-width:1.0;"/><line style="stroke:#A80036;stroke-width:1.0;" x1="774" x2="907" y1="732.1836" y2="732.1836"/><text fill="#000000" font-family="sans-serif" font-size="13" lengthAdjust="spacing" textLength="116" x="781" y="681.5098">Display video feed</text><text fill="#000000" font-family="sans-serif" font-size="13" lengthAdjust="spacing" textLength="96" x="781" y="696.8203">with overlaying</text><text fill="#000000" font-family="sans-serif" font-size="13" lengthAdjust="spacing" textLength="108" x="781" y="712.1309">rendering of user</text><text fill="#000000" font-family="sans-serif" font-size="13" lengthAdjust="spacing" textLength="48" x="781" y="727.4414">posture</text><polygon fill="#A80036" points="44,757.4941,34,761.4941,44,765.4941,40,761.4941" style="stroke:#A80036;stroke-width:1.0;"/><line style="stroke:#A80036;stroke-width:1.0;" x1="38" x2="763" y1="761.4941" y2="761.4941"/><text fill="#000000" font-family="sans-serif" font-size="13" lengthAdjust="spacing" textLength="173" x="50" y="756.752">Notification if poor posture</text><path d="M850,774.4941 L850,814.4941 L982,814.4941 L982,784.4941 L972,774.4941 L850,774.4941 " fill="#FBFB77" filter="url(#ff0t8m2jc4x2q)" style="stroke:#A80036;stroke-width:1.0;"/><path d="M972,774.4941 L972,784.4941 L982,784.4941 L972,774.4941 " fill="#FBFB77" style="stroke:#A80036;stroke-width:1.0;"/><text fill="#000000" font-family="sans-serif" font-size="13" lengthAdjust="spacing" textLength="107" x="856" y="792.0625">Allow interaction</text><text fill="#000000" font-family="sans-serif" font-size="13" lengthAdjust="spacing" textLength="76" x="856" y="807.373">with system</text><polygon fill="#A80036" points="44,841.4258,34,845.4258,44,849.4258,40,845.4258" style="stroke:#A80036;stroke-width:1.0;"/><line style="stroke:#A80036;stroke-width:1.0;" x1="38" x2="917" y1="845.4258" y2="845.4258"/><text fill="#000000" font-family="sans-serif" font-size="13" lengthAdjust="spacing" textLength="152" x="50" y="840.6836">GUI alert if poor posture</text><!--MD5=[acf268b5b8ec275eacafc106a065e30f]
@startuml

skinparam BoxPadding 10

box "FrameGenerator Thread" #Light
actor user
participant FrameGenerator
end box
box "Core Thread" #Light
participant PreProcessor
participant InferenceCore
end box
box "Post Processing Thread" #Light
participant PostProcessor
participant PostureEstimator
participant GUI
end box

user -> FrameGenerator: Video feed
user -> FrameGenerator: 
user -> FrameGenerator: 
FrameGenerator -> PreProcessor: Analyse video \nframe by frame
activate PreProcessor
note over PreProcessor
    1. Resize image 
        to suit model
    2. Fore/background 
        filtering    
end note
PreProcessor -> InferenceCore: Perform pose estimation \non image
activate InferenceCore

note over InferenceCore    
    Pass through model    
end note

InferenceCore -> PostProcessor : Output results \nof inference

activate PostProcessor

note over PostProcessor    
    1. Apply thresholding to discard
        unusable values  
    2. Filter output results
end note

PostProcessor -> PostureEstimator : Output co-ordinates \nof interest

activate PostureEstimator

note over PostureEstimator
    1. Use co-ordinates to
        determine if posture 
        is good/bad.
    2. Determine which changes
        need to be made to
        correct posture
end note

PostureEstimator -> GUI : Display video feed \nwith overlaying \nrendering of user \nposture
activate GUI

user <- PostureEstimator : Notification if poor posture

note over GUI
    Allow interaction 
    with system
end note
user <- GUI : GUI alert if poor posture

deactivate
deactivate
deactivate
deactivate
deactivate


@enduml

PlantUML version 1.2021.00(Sun Jan 10 10:25:05 GMT 2021)
(GPL source distribution)
Java Runtime: OpenJDK Runtime Environment
JVM: OpenJDK 64-Bit Server VM
Default Encoding: UTF-8
Language: en
Country: GB
--></g></svg>